{
	"asset":{
		"generator":"Khronos glTF Blender I/O v4.4.56",
		"version":"2.0"
	},
	"scene":0,
	"scenes":[
		{
			"name":"Scene",
			"nodes":[
				0
			]
		}
	],
	"nodes":[
		{
			"mesh":0,
			"name":"door_frame_lines"
		}
	],
	"materials":[
		{
			"doubleSided":true,
			"name":"DoorLine",
			"pbrMetallicRoughness":{
				"baseColorFactor":[
					0.800000011920929,
					0.800000011920929,
					0.800000011920929,
					1
				],
				"metallicFactor":0,
				"roughnessFactor":0.4000000059604645
			}
		}
	],
	"meshes":[
		{
			"name":"door_frame_lines",
			"primitives":[
				{
					"attributes":{
						"POSITION":0,
						"NORMAL":1
					},
					"indices":2,
					"material":0
				}
			]
		}
	],
	"accessors":[
		{
			"bufferView":0,
			"componentType":5126,
			"count":17592,
			"max":[
				1.4119999408721924,
				4.016066551208496,
				0.7620000243186951
			],
			"min":[
				-1.4119999408721924,
				-0.012000000104308128,
				-0.4619999825954437
			],
			"type":"VEC3"
		},
		{
			"bufferView":1,
			"componentType":5126,
			"count":17592,
			"type":"VEC3"
		},
		{
			"bufferView":2,
			"componentType":5123,
			"count":26388,
			"type":"SCALAR"
		}
	],
	"bufferViews":[
		{
			"buffer":0,
			"byteLength":211104,
			"byteOffset":0,
			"target":34962
		},
		{
			"buffer":0,
			"byteLength":211104,
			"byteOffset":211104,
			"target":34962
		},
		{
			"buffer":0,
			"byteLength":52776,
			"byteOffset":422208,
			"target":34963
		}
	],
	"buffers":[
		{
			"byteLength":474984,
			"uri":"door_frame_lines.bin"
		}
	]
}
