{
	"asset":{
		"generator":"Khronos glTF Blender I/O v4.4.56",
		"version":"2.0"
	},
	"scene":0,
	"scenes":[
		{
			"name":"Scene",
			"nodes":[
				0
			]
		}
	],
	"nodes":[
		{
			"mesh":0,
			"name":"door_frame"
		}
	],
	"materials":[
		{
			"doubleSided":true,
			"name":"Marble",
			"pbrMetallicRoughness":{
				"metallicFactor":0,
				"roughnessFactor":0.3499999940395355
			}
		},
		{
			"doubleSided":true,
			"name":"Gold",
			"pbrMetallicRoughness":{
				"baseColorFactor":[
					1,
					0.6800000071525574,
					0.23999999463558197,
					1
				],
				"roughnessFactor":0.25
			}
		}
	],
	"meshes":[
		{
			"name":"door_frame",
			"primitives":[
				{
					"attributes":{
						"POSITION":0,
						"NORMAL":1
					},
					"indices":2,
					"material":0
				},
				{
					"attributes":{
						"POSITION":3,
						"NORMAL":4
					},
					"indices":5,
					"material":1
				}
			]
		}
	],
	"accessors":[
		{
			"bufferView":0,
			"componentType":5126,
			"count":984,
			"max":[
				1.399999976158142,
				3.7199668884277344,
				0.75
			],
			"min":[
				-1.399999976158142,
				0,
				-0.44999998807907104
			],
			"type":"VEC3"
		},
		{
			"bufferView":1,
			"componentType":5126,
			"count":984,
			"type":"VEC3"
		},
		{
			"bufferView":2,
			"componentType":5123,
			"count":1872,
			"type":"SCALAR"
		},
		{
			"bufferView":3,
			"componentType":5126,
			"count":1002,
			"max":[
				1.2699999809265137,
				3.999966859817505,
				0.28999999165534973
			],
			"min":[
				-1.2699999809265137,
				0.15000000596046448,
				-0.23999999463558197
			],
			"type":"VEC3"
		},
		{
			"bufferView":4,
			"componentType":5126,
			"count":1002,
			"type":"VEC3"
		},
		{
			"bufferView":5,
			"componentType":5123,
			"count":1908,
			"type":"SCALAR"
		}
	],
	"bufferViews":[
		{
			"buffer":0,
			"byteLength":11808,
			"byteOffset":0,
			"target":34962
		},
		{
			"buffer":0,
			"byteLength":11808,
			"byteOffset":11808,
			"target":34962
		},
		{
			"buffer":0,
			"byteLength":3744,
			"byteOffset":23616,
			"target":34963
		},
		{
			"buffer":0,
			"byteLength":12024,
			"byteOffset":27360,
			"target":34962
		},
		{
			"buffer":0,
			"byteLength":12024,
			"byteOffset":39384,
			"target":34962
		},
		{
			"buffer":0,
			"byteLength":3816,
			"byteOffset":51408,
			"target":34963
		}
	],
	"buffers":[
		{
			"byteLength":55224,
			"uri":"door_frame.bin"
		}
	]
}
