{
	"asset":{
		"generator":"Khronos glTF Blender I/O v4.4.56",
		"version":"2.0"
	},
	"scene":0,
	"scenes":[
		{
			"name":"Scene",
			"nodes":[
				0
			]
		}
	],
	"nodes":[
		{
			"mesh":0,
			"name":"door_leaf_L_lines"
		}
	],
	"materials":[
		{
			"doubleSided":true,
			"name":"DoorLine",
			"pbrMetallicRoughness":{
				"baseColorFactor":[
					0.800000011920929,
					0.800000011920929,
					0.800000011920929,
					1
				],
				"metallicFactor":0,
				"roughnessFactor":0.4000000059604645
			}
		}
	],
	"meshes":[
		{
			"name":"door_leaf_L_lines",
			"primitives":[
				{
					"attributes":{
						"POSITION":0,
						"NORMAL":1
					},
					"indices":2,
					"material":0
				}
			]
		}
	],
	"accessors":[
		{
			"bufferView":0,
			"componentType":5126,
			"count":6072,
			"max":[
				0.9124638438224792,
				3.364046573638916,
				0.12200000137090683
			],
			"min":[
				-0.012471586465835571,
				0.1380000114440918,
				-0.011999999172985554
			],
			"type":"VEC3"
		},
		{
			"bufferView":1,
			"componentType":5126,
			"count":6072,
			"type":"VEC3"
		},
		{
			"bufferView":2,
			"componentType":5123,
			"count":9108,
			"type":"SCALAR"
		}
	],
	"bufferViews":[
		{
			"buffer":0,
			"byteLength":72864,
			"byteOffset":0,
			"target":34962
		},
		{
			"buffer":0,
			"byteLength":72864,
			"byteOffset":72864,
			"target":34962
		},
		{
			"buffer":0,
			"byteLength":18216,
			"byteOffset":145728,
			"target":34963
		}
	],
	"buffers":[
		{
			"byteLength":163944,
			"uri":"door_leaf_L_lines.bin"
		}
	]
}
