{
	"asset":{
		"generator":"Khronos glTF Blender I/O v4.4.56",
		"version":"2.0"
	},
	"scene":0,
	"scenes":[
		{
			"name":"Scene",
			"nodes":[
				0
			]
		}
	],
	"nodes":[
		{
			"mesh":0,
			"name":"door_leaf_R"
		}
	],
	"materials":[
		{
			"doubleSided":true,
			"name":"Marble",
			"pbrMetallicRoughness":{
				"metallicFactor":0,
				"roughnessFactor":0.3499999940395355
			}
		},
		{
			"doubleSided":true,
			"name":"Gold",
			"pbrMetallicRoughness":{
				"baseColorFactor":[
					1,
					0.6800000071525574,
					0.23999999463558197,
					1
				],
				"roughnessFactor":0.25
			}
		}
	],
	"meshes":[
		{
			"name":"door_leaf_R",
			"primitives":[
				{
					"attributes":{
						"POSITION":0,
						"NORMAL":1
					},
					"indices":2,
					"material":0
				},
				{
					"attributes":{
						"POSITION":3,
						"NORMAL":4
					},
					"indices":5,
					"material":1
				}
			]
		}
	],
	"accessors":[
		{
			"bufferView":0,
			"componentType":5126,
			"count":228,
			"max":[
				0,
				3.3488261699676514,
				0.09000000357627869
			],
			"min":[
				-0.8959999680519104,
				0.15000000596046448,
				0
			],
			"type":"VEC3"
		},
		{
			"bufferView":1,
			"componentType":5126,
			"count":228,
			"type":"VEC3"
		},
		{
			"bufferView":2,
			"componentType":5123,
			"count":432,
			"type":"SCALAR"
		},
		{
			"bufferView":3,
			"componentType":5126,
			"count":446,
			"max":[
				-0.06999999284744263,
				3.251192092895508,
				0.10999999940395355
			],
			"min":[
				-0.8959999680519104,
				0.2199999988079071,
				0.07000000774860382
			],
			"type":"VEC3"
		},
		{
			"bufferView":4,
			"componentType":5126,
			"count":446,
			"type":"VEC3"
		},
		{
			"bufferView":5,
			"componentType":5123,
			"count":852,
			"type":"SCALAR"
		}
	],
	"bufferViews":[
		{
			"buffer":0,
			"byteLength":2736,
			"byteOffset":0,
			"target":34962
		},
		{
			"buffer":0,
			"byteLength":2736,
			"byteOffset":2736,
			"target":34962
		},
		{
			"buffer":0,
			"byteLength":864,
			"byteOffset":5472,
			"target":34963
		},
		{
			"buffer":0,
			"byteLength":5352,
			"byteOffset":6336,
			"target":34962
		},
		{
			"buffer":0,
			"byteLength":5352,
			"byteOffset":11688,
			"target":34962
		},
		{
			"buffer":0,
			"byteLength":1704,
			"byteOffset":17040,
			"target":34963
		}
	],
	"buffers":[
		{
			"byteLength":18744,
			"uri":"door_leaf_R.bin"
		}
	]
}
