{
  "asset": {
    "version": "2.0",
    "generator": "gen_flagstone_floor.py"
  },
  "scene": 0,
  "scenes": [
    {
      "nodes": [
        0
      ]
    }
  ],
  "nodes": [
    {
      "mesh": 0,
      "name": "flagstone_floor"
    }
  ],
  "meshes": [
    {
      "name": "flagstone_floor",
      "primitives": [
        {
          "attributes": {
            "POSITION": 0,
            "NORMAL": 1,
            "TEXCOORD_0": 2
          },
          "indices": 3,
          "material": 0
        }
      ]
    }
  ],
  "materials": [
    {
      "name": "Flagstone",
      "pbrMetallicRoughness": {
        "baseColorTexture": {
          "index": 0
        },
        "metallicFactor": 0.0,
        "roughnessFactor": 0.8
      },
      "normalTexture": {
        "index": 1
      },
      "extras": {
        "heightTexture": "../../Textures/MaskTexture/Terrain/Flagstone_Height.png",
        "parallaxDepth": 0.0066031152056405295
      }
    }
  ],
  "textures": [
    {
      "source": 0
    },
    {
      "source": 1
    }
  ],
  "images": [
    {
      "uri": "../../Textures/Terrain/Flagstone_BaseColor.png"
    },
    {
      "uri": "../../Textures/NormalMapTexture/Terrain/Flagstone_NormalMap.png"
    }
  ],
  "buffers": [
    {
      "uri": "flagstone_floor.bin",
      "byteLength": 152
    }
  ],
  "bufferViews": [
    {
      "buffer": 0,
      "byteOffset": 0,
      "byteLength": 48,
      "target": 34962
    },
    {
      "buffer": 0,
      "byteOffset": 48,
      "byteLength": 48,
      "target": 34962
    },
    {
      "buffer": 0,
      "byteOffset": 96,
      "byteLength": 32,
      "target": 34962
    },
    {
      "buffer": 0,
      "byteOffset": 128,
      "byteLength": 24,
      "target": 34963
    }
  ],
  "accessors": [
    {
      "bufferView": 0,
      "componentType": 5126,
      "count": 4,
      "type": "VEC3",
      "min": [
        -15.0,
        0.0,
        -15.0
      ],
      "max": [
        15.0,
        0.0,
        15.0
      ]
    },
    {
      "bufferView": 1,
      "componentType": 5126,
      "count": 4,
      "type": "VEC3"
    },
    {
      "bufferView": 2,
      "componentType": 5126,
      "count": 4,
      "type": "VEC2"
    },
    {
      "bufferView": 3,
      "componentType": 5125,
      "count": 6,
      "type": "SCALAR"
    }
  ]
}