{
	"asset":{
		"generator":"Khronos glTF Blender I/O v4.4.56",
		"version":"2.0"
	},
	"scene":0,
	"scenes":[
		{
			"extras":{
				"cg2_scene_name":"StagePlay"
			},
			"name":"Scene",
			"nodes":[
				0,
				1
			]
		}
	],
	"nodes":[
		{
			"extras":{
				"cg2":{
					"spline_tag":2
				},
				"engine_spline_tag":"EnemyPathSpline",
				"engine_spline_points":"[[2.9855194091796875, -17.38371467590332, 143.53785705566406], [-20.890037536621094, -9.85538387298584, 154.42315673828125], [-44.17033767700195, 12.41987419128418, 100.48615264892578], [-50.107391357421875, -6.07191801071167, 157.86880493164062], [-60.24365234375, 28.258235931396484, 101.43388366699219]]"
			},
			"name":"EnemyPath_01"
		},
		{
			"extras":{
				"cg2":{
					"export_asset":1,
					"tag":7,
					"model_dir":"Resources/Models/NormalMapTest",
					"model_file":"NormalMapTest.mesh"
				},
				"engine_tag":"Terrain",
				"engine_model_dir":"Resources/Models/NormalMapTest",
				"engine_model_file":"NormalMapTest.mesh"
			},
			"mesh":0,
			"name":"NormalMapTest"
		}
	],
	"materials":[
		{
			"doubleSided":true,
			"name":"RockyDirt",
			"normalTexture":{
				"index":0
			},
			"pbrMetallicRoughness":{
				"baseColorTexture":{
					"index":1
				},
				"metallicFactor":0,
				"roughnessFactor":0.75
			}
		}
	],
	"meshes":[
		{
			"name":"\u5e73\u9762",
			"primitives":[
				{
					"attributes":{
						"POSITION":0,
						"NORMAL":1,
						"TEXCOORD_0":2
					},
					"indices":3,
					"material":0
				}
			]
		}
	],
	"textures":[
		{
			"sampler":0,
			"source":0
		},
		{
			"sampler":0,
			"source":1
		}
	],
	"images":[
		{
			"mimeType":"image/png",
			"name":"RockyDirt_NormalMap",
			"uri":"RockyDirt_NormalMap.png"
		},
		{
			"mimeType":"image/png",
			"name":"RockyDirt_BaseColor",
			"uri":"RockyDirt_BaseColor.png"
		}
	],
	"accessors":[
		{
			"bufferView":0,
			"componentType":5126,
			"count":4,
			"max":[
				30,
				0,
				30
			],
			"min":[
				-30,
				0,
				-30
			],
			"type":"VEC3"
		},
		{
			"bufferView":1,
			"componentType":5126,
			"count":4,
			"type":"VEC3"
		},
		{
			"bufferView":2,
			"componentType":5126,
			"count":4,
			"type":"VEC2"
		},
		{
			"bufferView":3,
			"componentType":5123,
			"count":6,
			"type":"SCALAR"
		}
	],
	"bufferViews":[
		{
			"buffer":0,
			"byteLength":48,
			"byteOffset":0,
			"target":34962
		},
		{
			"buffer":0,
			"byteLength":48,
			"byteOffset":48,
			"target":34962
		},
		{
			"buffer":0,
			"byteLength":32,
			"byteOffset":96,
			"target":34962
		},
		{
			"buffer":0,
			"byteLength":12,
			"byteOffset":128,
			"target":34963
		}
	],
	"samplers":[
		{
			"magFilter":9729,
			"minFilter":9987
		}
	],
	"buffers":[
		{
			"byteLength":140,
			"uri":"StagePlay_layout.bin"
		}
	]
}
