{
	"asset":{
		"generator":"Khronos glTF Blender I/O v4.4.56",
		"version":"2.0"
	},
	"extensionsUsed":[
		"KHR_texture_transform",
		"KHR_materials_unlit"
	],
	"extensionsRequired":[
		"KHR_texture_transform"
	],
	"scene":0,
	"scenes":[
		{
			"name":"Scene",
			"nodes":[
				64
			]
		}
	],
	"nodes":[
		{
			"mesh":0,
			"name":"sphere.014"
		},
		{
			"mesh":1,
			"name":"sphere_tex.013"
		},
		{
			"children":[
				0,
				1
			],
			"name":"AlphaBlend.001"
		},
		{
			"mesh":2,
			"name":"leaf"
		},
		{
			"mesh":3,
			"name":"sphere_tex.011"
		},
		{
			"mesh":4,
			"name":"sphere_tex.012"
		},
		{
			"children":[
				3,
				4,
				5
			],
			"name":"AlphaMask\u306e\u78ba\u8a8d"
		},
		{
			"mesh":5,
			"name":"\u30dd\u30ea\u30b4\u30f3\u30e1\u30c3\u30b7\u30e5.002"
		},
		{
			"mesh":6,
			"name":"\u30dd\u30ea\u30b4\u30f3\u30e1\u30c3\u30b7\u30e5.003"
		},
		{
			"children":[
				7,
				8
			],
			"name":"DoubleSided\u306e\u78ba\u8a8d",
			"translation":[
				0,
				0,
				0.2750000059604645
			]
		},
		{
			"mesh":7,
			"name":"sphere.012"
		},
		{
			"mesh":8,
			"name":"sphere.013"
		},
		{
			"mesh":9,
			"name":"sphere_tex.010"
		},
		{
			"children":[
				10,
				11,
				12
			],
			"name":"Emissive\u306e\u78ba\u8a8d"
		},
		{
			"mesh":10,
			"name":"ground"
		},
		{
			"mesh":11,
			"name":"ground.001"
		},
		{
			"mesh":12,
			"name":"sphere.003"
		},
		{
			"mesh":13,
			"name":"sphere.004"
		},
		{
			"mesh":14,
			"name":"sphere.005"
		},
		{
			"mesh":15,
			"name":"sphere_tex.003"
		},
		{
			"mesh":16,
			"name":"sphere_tex.004"
		},
		{
			"children":[
				16,
				17,
				18,
				19,
				20
			],
			"name":"Metallic\u306e\u78ba\u8a8d"
		},
		{
			"mesh":17,
			"name":"Occlusion.001"
		},
		{
			"mesh":18,
			"name":"Occlusion.002"
		},
		{
			"children":[
				22,
				23
			],
			"name":"Occlusion\u306e\u78ba\u8a8d"
		},
		{
			"mesh":19,
			"name":"sphere.006"
		},
		{
			"mesh":20,
			"name":"sphere.007"
		},
		{
			"mesh":21,
			"name":"sphere.008"
		},
		{
			"mesh":22,
			"name":"sphere.009"
		},
		{
			"mesh":23,
			"name":"sphere.010"
		},
		{
			"mesh":24,
			"name":"sphere.011"
		},
		{
			"mesh":25,
			"name":"sphere_tex.005"
		},
		{
			"mesh":26,
			"name":"sphere_tex.006"
		},
		{
			"children":[
				25,
				26,
				27,
				28,
				29,
				30,
				31,
				32
			],
			"name":"Roughness\u306e\u78ba\u8a8d"
		},
		{
			"mesh":27,
			"name":"sphere"
		},
		{
			"mesh":28,
			"name":"sphere.001"
		},
		{
			"mesh":29,
			"name":"sphere.002"
		},
		{
			"mesh":30,
			"name":"sphere_tex"
		},
		{
			"mesh":31,
			"name":"sphere_tex.001"
		},
		{
			"mesh":32,
			"name":"sphere_tex.002"
		},
		{
			"children":[
				34,
				35,
				36,
				37,
				38,
				39
			],
			"name":"sRGB\u306e\u78ba\u8a8d"
		},
		{
			"mesh":33,
			"name":"AlphaBlend"
		},
		{
			"mesh":34,
			"name":"AlphaMask"
		},
		{
			"mesh":35,
			"name":"Color(sRGB)"
		},
		{
			"mesh":36,
			"name":"Double Sided"
		},
		{
			"mesh":37,
			"name":"Emissive"
		},
		{
			"mesh":38,
			"name":"KHR_texture_transform"
		},
		{
			"mesh":39,
			"name":"Metallic"
		},
		{
			"mesh":40,
			"name":"Normal map"
		},
		{
			"mesh":41,
			"name":"Occlusion"
		},
		{
			"mesh":42,
			"name":"Roughness"
		},
		{
			"mesh":43,
			"name":"Unlit"
		},
		{
			"mesh":44,
			"name":"Vertex Color"
		},
		{
			"children":[
				41,
				42,
				43,
				44,
				45,
				46,
				47,
				48,
				49,
				50,
				51,
				52
			],
			"name":"Text",
			"scale":[
				2,
				2,
				2
			],
			"translation":[
				0.10015350580215454,
				-0.07976985722780228,
				-0.04286642745137215
			]
		},
		{
			"mesh":45,
			"name":"torus"
		},
		{
			"mesh":46,
			"name":"torus.001"
		},
		{
			"children":[
				54,
				55
			],
			"name":"Unlit\u306e\u78ba\u8a8d",
			"translation":[
				0,
				0,
				0.2750000059604645
			]
		},
		{
			"mesh":47,
			"name":"sphere_tex.007"
		},
		{
			"mesh":48,
			"name":"sphere_tex.008"
		},
		{
			"mesh":49,
			"name":"sphere_tex.009"
		},
		{
			"children":[
				57,
				58,
				59
			],
			"name":"\u6cd5\u7dda\u30de\u30c3\u30d7\u306e\u78ba\u8a8d"
		},
		{
			"mesh":50,
			"name":"\u30dd\u30ea\u30b4\u30f3\u30e1\u30c3\u30b7\u30e5"
		},
		{
			"mesh":51,
			"name":"\u30dd\u30ea\u30b4\u30f3\u30e1\u30c3\u30b7\u30e5.001"
		},
		{
			"children":[
				61,
				62
			],
			"name":"\u9802\u70b9\u30ab\u30e9\u30fc\u306e\u78ba\u8a8d"
		},
		{
			"children":[
				2,
				6,
				9,
				13,
				14,
				15,
				21,
				24,
				33,
				40,
				53,
				56,
				60,
				63
			],
			"name":"\u30eb\u30fc\u30c8\u30d1\u30fc\u30c8"
		}
	],
	"materials":[
		{
			"alphaMode":"BLEND",
			"name":"mat_AlphaBlend_1",
			"pbrMetallicRoughness":{
				"baseColorFactor":[
					0.19326753914356232,
					0.2348952740430832,
					0.5455109477043152,
					0.5
				],
				"roughnessFactor":0
			}
		},
		{
			"alphaMode":"BLEND",
			"name":"mat_alphaBlend_2",
			"pbrMetallicRoughness":{
				"baseColorFactor":[
					0.19326753914356232,
					0.2348952740430832,
					0.5455109477043152,
					1
				],
				"baseColorTexture":{
					"index":0
				},
				"metallicFactor":0,
				"roughnessFactor":0
			}
		},
		{
			"alphaMode":"MASK",
			"doubleSided":true,
			"name":"mat_leaf_doubleSided",
			"pbrMetallicRoughness":{
				"baseColorTexture":{
					"index":1
				},
				"metallicFactor":0,
				"roughnessFactor":0.4000000059604645
			}
		},
		{
			"alphaMode":"MASK",
			"doubleSided":true,
			"name":"mat_alphaMask_2_doubleSided",
			"pbrMetallicRoughness":{
				"baseColorFactor":[
					0.19326753914356232,
					0.2348952740430832,
					0.5455109477043152,
					1
				],
				"baseColorTexture":{
					"index":2
				},
				"metallicFactor":0,
				"roughnessFactor":0
			}
		},
		{
			"alphaCutoff":0.25,
			"alphaMode":"MASK",
			"doubleSided":true,
			"name":"mat_alphaMask_3_doubleSided",
			"pbrMetallicRoughness":{
				"baseColorFactor":[
					0.19326753914356232,
					0.2348952740430832,
					0.5455109477043152,
					1
				],
				"baseColorTexture":{
					"index":3
				},
				"metallicFactor":0,
				"roughnessFactor":0
			}
		},
		{
			"name":"ds_none",
			"pbrMetallicRoughness":{
				"baseColorFactor":[
					0,
					1,
					0,
					1
				],
				"metallicFactor":0,
				"roughnessFactor":0.5
			}
		},
		{
			"doubleSided":true,
			"name":"ds_none_doubleSided",
			"pbrMetallicRoughness":{
				"baseColorFactor":[
					0,
					1,
					0,
					1
				],
				"metallicFactor":0,
				"roughnessFactor":0.5
			}
		},
		{
			"emissiveFactor":[
				0.1701383888721466,
				0.17677433788776398,
				0.04069574177265167
			],
			"name":"mat_emissive_1",
			"pbrMetallicRoughness":{
				"baseColorFactor":[
					0.3250369727611542,
					0.3250369727611542,
					0.3250369727611542,
					1
				],
				"metallicFactor":0,
				"roughnessFactor":0
			}
		},
		{
			"emissiveFactor":[
				0.7817507982254028,
				0.8122416138648987,
				0.18698853254318237
			],
			"name":"mat_emissive_2",
			"pbrMetallicRoughness":{
				"baseColorFactor":[
					0.3250369727611542,
					0.3250369727611542,
					0.3250369727611542,
					1
				],
				"metallicFactor":0,
				"roughnessFactor":0
			}
		},
		{
			"emissiveFactor":[
				1,
				1,
				1
			],
			"emissiveTexture":{
				"index":4
			},
			"name":"mat_emissive_tex1",
			"pbrMetallicRoughness":{
				"baseColorFactor":[
					0.3250369727611542,
					0.3250369727611542,
					0.3250369727611542,
					1
				],
				"metallicFactor":0,
				"roughnessFactor":0
			}
		},
		{
			"name":"ground",
			"pbrMetallicRoughness":{
				"baseColorTexture":{
					"extensions":{
						"KHR_texture_transform":{
							"scale":[
								3,
								2
							]
						}
					},
					"index":5
				},
				"metallicFactor":0,
				"roughnessFactor":0.5
			}
		},
		{
			"name":"mat_metallic_1",
			"pbrMetallicRoughness":{
				"baseColorFactor":[
					0.6120656132698059,
					0.6120656132698059,
					0.6120656132698059,
					1
				],
				"metallicFactor":0,
				"roughnessFactor":0
			}
		},
		{
			"name":"mat_metallic_2",
			"pbrMetallicRoughness":{
				"baseColorFactor":[
					0.6120656132698059,
					0.6120656132698059,
					0.6120656132698059,
					1
				],
				"metallicFactor":0.5,
				"roughnessFactor":0
			}
		},
		{
			"name":"mat_metallic_3",
			"pbrMetallicRoughness":{
				"baseColorFactor":[
					0.6120656132698059,
					0.6120656132698059,
					0.6120656132698059,
					1
				],
				"roughnessFactor":0
			}
		},
		{
			"name":"mat_metallic_tex_1",
			"pbrMetallicRoughness":{
				"baseColorFactor":[
					0.6120656132698059,
					0.6120656132698059,
					0.6120656132698059,
					1
				],
				"metallicRoughnessTexture":{
					"index":6
				},
				"roughnessFactor":0
			}
		},
		{
			"name":"mat_metallic_tex_2",
			"pbrMetallicRoughness":{
				"baseColorFactor":[
					0.6120656132698059,
					0.6120656132698059,
					0.6120656132698059,
					1
				],
				"metallicRoughnessTexture":{
					"index":7
				},
				"roughnessFactor":0
			}
		},
		{
			"name":"mat_occlusion_1",
			"pbrMetallicRoughness":{
				"baseColorFactor":[
					0.6120656132698059,
					0.6120656132698059,
					0.6120656132698059,
					1
				],
				"metallicFactor":0,
				"roughnessFactor":0.30000001192092896
			}
		},
		{
			"name":"mat_occlusion_2",
			"occlusionTexture":{
				"index":8
			},
			"pbrMetallicRoughness":{
				"baseColorFactor":[
					0.6120656132698059,
					0.6120656132698059,
					0.6120656132698059,
					1
				],
				"metallicFactor":0,
				"roughnessFactor":0.30000001192092896
			}
		},
		{
			"name":"mat_roughness_1",
			"pbrMetallicRoughness":{
				"baseColorFactor":[
					0.6120656132698059,
					0.6120656132698059,
					0.6120656132698059,
					1
				],
				"roughnessFactor":0
			}
		},
		{
			"name":"mat_roughness_2",
			"pbrMetallicRoughness":{
				"baseColorFactor":[
					0.6120656132698059,
					0.6120656132698059,
					0.6120656132698059,
					1
				],
				"roughnessFactor":0.30000001192092896
			}
		},
		{
			"name":"mat_roughness_3",
			"pbrMetallicRoughness":{
				"baseColorFactor":[
					0.6120656132698059,
					0.6120656132698059,
					0.6120656132698059,
					1
				],
				"roughnessFactor":0.6000000238418579
			}
		},
		{
			"name":"mat_roughness_4",
			"pbrMetallicRoughness":{
				"baseColorFactor":[
					0.45570138096809387,
					0.4162171185016632,
					0.010397803038358688,
					1
				],
				"roughnessFactor":0
			}
		},
		{
			"name":"mat_roughness_5",
			"pbrMetallicRoughness":{
				"baseColorFactor":[
					0.45570138096809387,
					0.4162171185016632,
					0.010397803038358688,
					1
				],
				"roughnessFactor":0.30000001192092896
			}
		},
		{
			"name":"mat_roughness_6",
			"pbrMetallicRoughness":{
				"baseColorFactor":[
					0.45570138096809387,
					0.4162171185016632,
					0.010397803038358688,
					1
				],
				"roughnessFactor":0.6000000238418579
			}
		},
		{
			"name":"mat_roughness_tex_1",
			"pbrMetallicRoughness":{
				"baseColorFactor":[
					0.6120656132698059,
					0.6120656132698059,
					0.6120656132698059,
					1
				],
				"metallicRoughnessTexture":{
					"index":9
				}
			}
		},
		{
			"name":"mat_roughness_tex_2",
			"pbrMetallicRoughness":{
				"baseColorFactor":[
					0.6120656132698059,
					0.6120656132698059,
					0.6120656132698059,
					1
				],
				"metallicRoughnessTexture":{
					"index":10
				}
			}
		},
		{
			"name":"mat_brown",
			"pbrMetallicRoughness":{
				"baseColorFactor":[
					0.5113978385925293,
					0.2715774476528168,
					0.13609856367111206,
					1
				],
				"metallicFactor":0,
				"roughnessFactor":0
			}
		},
		{
			"name":"mat_green",
			"pbrMetallicRoughness":{
				"baseColorFactor":[
					0.2195197343826294,
					0.8591737151145935,
					0.3203815817832947,
					1
				],
				"metallicFactor":0,
				"roughnessFactor":0
			}
		},
		{
			"name":"mat_blue",
			"pbrMetallicRoughness":{
				"baseColorFactor":[
					0.06381487101316452,
					0.38377466797828674,
					0.6455553770065308,
					1
				],
				"metallicFactor":0,
				"roughnessFactor":0
			}
		},
		{
			"name":"mat_brown_texture",
			"pbrMetallicRoughness":{
				"baseColorFactor":[
					0.5113978385925293,
					0.2715774476528168,
					0.13609856367111206,
					1
				],
				"baseColorTexture":{
					"index":11
				},
				"metallicFactor":0,
				"roughnessFactor":0
			}
		},
		{
			"name":"mat_green_texture",
			"pbrMetallicRoughness":{
				"baseColorFactor":[
					0.2195197343826294,
					0.8591737151145935,
					0.3203815817832947,
					1
				],
				"baseColorTexture":{
					"index":12
				},
				"metallicFactor":0,
				"roughnessFactor":0
			}
		},
		{
			"name":"mat_blue_texture",
			"pbrMetallicRoughness":{
				"baseColorFactor":[
					0.06381487101316452,
					0.38377466797828674,
					0.6455553770065308,
					1
				],
				"baseColorTexture":{
					"index":13
				},
				"metallicFactor":0,
				"roughnessFactor":0
			}
		},
		{
			"alphaMode":"MASK",
			"doubleSided":true,
			"name":"text_doubleSided",
			"pbrMetallicRoughness":{
				"baseColorTexture":{
					"index":14
				},
				"metallicFactor":0,
				"roughnessFactor":0.6000000238418579
			}
		},
		{
			"name":"mat_torus",
			"pbrMetallicRoughness":{
				"baseColorTexture":{
					"index":15
				},
				"metallicFactor":0,
				"roughnessFactor":0
			}
		},
		{
			"extensions":{
				"KHR_materials_unlit":{}
			},
			"name":"mat_torus_unlit",
			"pbrMetallicRoughness":{
				"baseColorTexture":{
					"index":16
				},
				"metallicFactor":0,
				"roughnessFactor":0.9
			}
		},
		{
			"name":"mat_normal_1",
			"normalTexture":{
				"extensions":{
					"KHR_texture_transform":{
						"scale":[
							2,
							1
						]
					}
				},
				"index":17,
				"scale":0.20000000298023224
			},
			"pbrMetallicRoughness":{
				"baseColorFactor":[
					0.6120656132698059,
					0.6120656132698059,
					0.6120656132698059,
					1
				],
				"metallicFactor":0,
				"roughnessFactor":0
			}
		},
		{
			"name":"mat_normal_2",
			"normalTexture":{
				"extensions":{
					"KHR_texture_transform":{
						"scale":[
							2,
							1
						]
					}
				},
				"index":18,
				"scale":0.5
			},
			"pbrMetallicRoughness":{
				"baseColorFactor":[
					0.6120656132698059,
					0.6120656132698059,
					0.6120656132698059,
					1
				],
				"metallicFactor":0,
				"roughnessFactor":0
			}
		},
		{
			"name":"mat_normal_3",
			"normalTexture":{
				"extensions":{
					"KHR_texture_transform":{
						"scale":[
							2,
							1
						]
					}
				},
				"index":19
			},
			"pbrMetallicRoughness":{
				"baseColorFactor":[
					0.6120656132698059,
					0.6120656132698059,
					0.6120656132698059,
					1
				],
				"metallicFactor":0,
				"roughnessFactor":0
			}
		},
		{
			"name":"mat_vertexColor_0",
			"pbrMetallicRoughness":{
				"metallicFactor":0,
				"roughnessFactor":0
			}
		},
		{
			"alphaMode":"BLEND",
			"name":"mat_vertexColor_1",
			"pbrMetallicRoughness":{
				"baseColorFactor":[
					0.6120656132698059,
					0.6120656132698059,
					0.6120656132698059,
					1
				],
				"baseColorTexture":{
					"index":20
				},
				"metallicFactor":0,
				"roughnessFactor":0
			}
		}
	],
	"meshes":[
		{
			"name":"sphere.014",
			"primitives":[
				{
					"attributes":{
						"POSITION":0,
						"NORMAL":1
					},
					"indices":2,
					"material":0
				}
			]
		},
		{
			"name":"sphere_tex.013",
			"primitives":[
				{
					"attributes":{
						"POSITION":3,
						"NORMAL":4,
						"TEXCOORD_0":5
					},
					"indices":2,
					"material":1
				}
			]
		},
		{
			"name":"leaf",
			"primitives":[
				{
					"attributes":{
						"POSITION":6,
						"NORMAL":7,
						"TEXCOORD_0":8
					},
					"indices":9,
					"material":2
				}
			]
		},
		{
			"name":"sphere_tex.011",
			"primitives":[
				{
					"attributes":{
						"POSITION":10,
						"NORMAL":11,
						"TEXCOORD_0":12
					},
					"indices":2,
					"material":3
				}
			]
		},
		{
			"name":"sphere_tex.012",
			"primitives":[
				{
					"attributes":{
						"POSITION":13,
						"NORMAL":14,
						"TEXCOORD_0":15
					},
					"indices":2,
					"material":4
				}
			]
		},
		{
			"name":"\u30dd\u30ea\u30b4\u30f3\u30e1\u30c3\u30b7\u30e5.002",
			"primitives":[
				{
					"attributes":{
						"POSITION":16,
						"NORMAL":17
					},
					"indices":18,
					"material":5
				}
			]
		},
		{
			"name":"\u30dd\u30ea\u30b4\u30f3\u30e1\u30c3\u30b7\u30e5.003",
			"primitives":[
				{
					"attributes":{
						"POSITION":19,
						"NORMAL":20
					},
					"indices":18,
					"material":6
				}
			]
		},
		{
			"name":"sphere.012",
			"primitives":[
				{
					"attributes":{
						"POSITION":21,
						"NORMAL":22
					},
					"indices":2,
					"material":7
				}
			]
		},
		{
			"name":"sphere.013",
			"primitives":[
				{
					"attributes":{
						"POSITION":23,
						"NORMAL":24
					},
					"indices":2,
					"material":8
				}
			]
		},
		{
			"name":"sphere_tex.010",
			"primitives":[
				{
					"attributes":{
						"POSITION":25,
						"NORMAL":26,
						"TEXCOORD_0":27
					},
					"indices":28,
					"material":9
				}
			]
		},
		{
			"name":"ground",
			"primitives":[
				{
					"attributes":{
						"POSITION":29,
						"NORMAL":30,
						"TEXCOORD_0":31
					},
					"indices":9,
					"material":10
				}
			]
		},
		{
			"name":"ground.001",
			"primitives":[
				{
					"attributes":{
						"POSITION":32,
						"NORMAL":33,
						"TEXCOORD_0":34
					},
					"indices":35,
					"material":10
				}
			]
		},
		{
			"name":"sphere.003",
			"primitives":[
				{
					"attributes":{
						"POSITION":36,
						"NORMAL":37
					},
					"indices":2,
					"material":11
				}
			]
		},
		{
			"name":"sphere.004",
			"primitives":[
				{
					"attributes":{
						"POSITION":38,
						"NORMAL":39
					},
					"indices":2,
					"material":12
				}
			]
		},
		{
			"name":"sphere.005",
			"primitives":[
				{
					"attributes":{
						"POSITION":40,
						"NORMAL":41
					},
					"indices":2,
					"material":13
				}
			]
		},
		{
			"name":"sphere_tex.003",
			"primitives":[
				{
					"attributes":{
						"POSITION":42,
						"NORMAL":43,
						"TEXCOORD_0":44
					},
					"indices":28,
					"material":14
				}
			]
		},
		{
			"name":"sphere_tex.004",
			"primitives":[
				{
					"attributes":{
						"POSITION":45,
						"NORMAL":46,
						"TEXCOORD_0":47
					},
					"indices":2,
					"material":15
				}
			]
		},
		{
			"name":"Occlusion.001",
			"primitives":[
				{
					"attributes":{
						"POSITION":48,
						"NORMAL":49,
						"TEXCOORD_0":50
					},
					"indices":51,
					"material":16
				}
			]
		},
		{
			"name":"Occlusion.002",
			"primitives":[
				{
					"attributes":{
						"POSITION":52,
						"NORMAL":53,
						"TEXCOORD_0":54
					},
					"indices":51,
					"material":17
				}
			]
		},
		{
			"name":"sphere.006",
			"primitives":[
				{
					"attributes":{
						"POSITION":55,
						"NORMAL":56
					},
					"indices":2,
					"material":18
				}
			]
		},
		{
			"name":"sphere.007",
			"primitives":[
				{
					"attributes":{
						"POSITION":57,
						"NORMAL":58
					},
					"indices":2,
					"material":19
				}
			]
		},
		{
			"name":"sphere.008",
			"primitives":[
				{
					"attributes":{
						"POSITION":59,
						"NORMAL":60
					},
					"indices":2,
					"material":20
				}
			]
		},
		{
			"name":"sphere.009",
			"primitives":[
				{
					"attributes":{
						"POSITION":61,
						"NORMAL":62
					},
					"indices":2,
					"material":21
				}
			]
		},
		{
			"name":"sphere.010",
			"primitives":[
				{
					"attributes":{
						"POSITION":63,
						"NORMAL":64
					},
					"indices":2,
					"material":22
				}
			]
		},
		{
			"name":"sphere.011",
			"primitives":[
				{
					"attributes":{
						"POSITION":65,
						"NORMAL":66
					},
					"indices":2,
					"material":23
				}
			]
		},
		{
			"name":"sphere_tex.005",
			"primitives":[
				{
					"attributes":{
						"POSITION":67,
						"NORMAL":68,
						"TEXCOORD_0":69
					},
					"indices":28,
					"material":24
				}
			]
		},
		{
			"name":"sphere_tex.006",
			"primitives":[
				{
					"attributes":{
						"POSITION":70,
						"NORMAL":71,
						"TEXCOORD_0":72
					},
					"indices":2,
					"material":25
				}
			]
		},
		{
			"name":"sphere",
			"primitives":[
				{
					"attributes":{
						"POSITION":73,
						"NORMAL":74
					},
					"indices":2,
					"material":26
				}
			]
		},
		{
			"name":"sphere.001",
			"primitives":[
				{
					"attributes":{
						"POSITION":75,
						"NORMAL":76
					},
					"indices":2,
					"material":27
				}
			]
		},
		{
			"name":"sphere.002",
			"primitives":[
				{
					"attributes":{
						"POSITION":77,
						"NORMAL":78
					},
					"indices":2,
					"material":28
				}
			]
		},
		{
			"name":"sphere_tex",
			"primitives":[
				{
					"attributes":{
						"POSITION":79,
						"NORMAL":80,
						"TEXCOORD_0":81
					},
					"indices":28,
					"material":29
				}
			]
		},
		{
			"name":"sphere_tex.001",
			"primitives":[
				{
					"attributes":{
						"POSITION":82,
						"NORMAL":83,
						"TEXCOORD_0":84
					},
					"indices":28,
					"material":30
				}
			]
		},
		{
			"name":"sphere_tex.002",
			"primitives":[
				{
					"attributes":{
						"POSITION":85,
						"NORMAL":86,
						"TEXCOORD_0":87
					},
					"indices":28,
					"material":31
				}
			]
		},
		{
			"name":"AlphaBlend",
			"primitives":[
				{
					"attributes":{
						"POSITION":88,
						"NORMAL":89,
						"TEXCOORD_0":90
					},
					"indices":35,
					"material":32
				}
			]
		},
		{
			"name":"AlphaMask",
			"primitives":[
				{
					"attributes":{
						"POSITION":91,
						"NORMAL":92,
						"TEXCOORD_0":93
					},
					"indices":35,
					"material":32
				}
			]
		},
		{
			"name":"Color(sRGB)",
			"primitives":[
				{
					"attributes":{
						"POSITION":94,
						"NORMAL":95,
						"TEXCOORD_0":96
					},
					"indices":35,
					"material":32
				}
			]
		},
		{
			"name":"Double Sided",
			"primitives":[
				{
					"attributes":{
						"POSITION":97,
						"NORMAL":98,
						"TEXCOORD_0":99
					},
					"indices":35,
					"material":32
				}
			]
		},
		{
			"name":"Emissive",
			"primitives":[
				{
					"attributes":{
						"POSITION":100,
						"NORMAL":101,
						"TEXCOORD_0":102
					},
					"indices":35,
					"material":32
				}
			]
		},
		{
			"name":"KHR_texture_transform",
			"primitives":[
				{
					"attributes":{
						"POSITION":103,
						"NORMAL":104,
						"TEXCOORD_0":105
					},
					"indices":106,
					"material":32
				}
			]
		},
		{
			"name":"Metallic",
			"primitives":[
				{
					"attributes":{
						"POSITION":107,
						"NORMAL":108,
						"TEXCOORD_0":109
					},
					"indices":35,
					"material":32
				}
			]
		},
		{
			"name":"Normal map",
			"primitives":[
				{
					"attributes":{
						"POSITION":110,
						"NORMAL":111,
						"TEXCOORD_0":112
					},
					"indices":35,
					"material":32
				}
			]
		},
		{
			"name":"Occlusion",
			"primitives":[
				{
					"attributes":{
						"POSITION":113,
						"NORMAL":114,
						"TEXCOORD_0":115
					},
					"indices":106,
					"material":32
				}
			]
		},
		{
			"name":"Roughness",
			"primitives":[
				{
					"attributes":{
						"POSITION":116,
						"NORMAL":117,
						"TEXCOORD_0":118
					},
					"indices":35,
					"material":32
				}
			]
		},
		{
			"name":"Unlit",
			"primitives":[
				{
					"attributes":{
						"POSITION":119,
						"NORMAL":120,
						"TEXCOORD_0":121
					},
					"indices":35,
					"material":32
				}
			]
		},
		{
			"name":"Vertex Color",
			"primitives":[
				{
					"attributes":{
						"POSITION":122,
						"NORMAL":123,
						"TEXCOORD_0":124
					},
					"indices":35,
					"material":32
				}
			]
		},
		{
			"name":"torus",
			"primitives":[
				{
					"attributes":{
						"POSITION":125,
						"NORMAL":126,
						"TEXCOORD_0":127
					},
					"indices":128,
					"material":33
				}
			]
		},
		{
			"name":"torus.001",
			"primitives":[
				{
					"attributes":{
						"POSITION":129,
						"NORMAL":130,
						"TEXCOORD_0":131
					},
					"indices":128,
					"material":34
				}
			]
		},
		{
			"name":"sphere_tex.007",
			"primitives":[
				{
					"attributes":{
						"POSITION":132,
						"NORMAL":133,
						"TEXCOORD_0":134
					},
					"indices":28,
					"material":35
				}
			]
		},
		{
			"name":"sphere_tex.008",
			"primitives":[
				{
					"attributes":{
						"POSITION":135,
						"NORMAL":136,
						"TEXCOORD_0":137
					},
					"indices":28,
					"material":36
				}
			]
		},
		{
			"name":"sphere_tex.009",
			"primitives":[
				{
					"attributes":{
						"POSITION":138,
						"NORMAL":139,
						"TEXCOORD_0":140
					},
					"indices":28,
					"material":37
				}
			]
		},
		{
			"name":"\u30dd\u30ea\u30b4\u30f3\u30e1\u30c3\u30b7\u30e5",
			"primitives":[
				{
					"attributes":{
						"POSITION":141,
						"NORMAL":142,
						"TEXCOORD_0":143,
						"COLOR_0":144
					},
					"indices":145,
					"material":38
				}
			]
		},
		{
			"name":"\u30dd\u30ea\u30b4\u30f3\u30e1\u30c3\u30b7\u30e5.001",
			"primitives":[
				{
					"attributes":{
						"POSITION":146,
						"NORMAL":147,
						"TEXCOORD_0":148,
						"COLOR_0":149
					},
					"indices":145,
					"material":39
				}
			]
		}
	],
	"textures":[
		{
			"sampler":0,
			"source":0
		},
		{
			"sampler":0,
			"source":1
		},
		{
			"sampler":0,
			"source":0
		},
		{
			"sampler":0,
			"source":0
		},
		{
			"sampler":0,
			"source":2
		},
		{
			"sampler":0,
			"source":3
		},
		{
			"sampler":0,
			"source":4
		},
		{
			"sampler":0,
			"source":5
		},
		{
			"sampler":0,
			"source":6
		},
		{
			"sampler":0,
			"source":7
		},
		{
			"sampler":0,
			"source":8
		},
		{
			"sampler":0,
			"source":9
		},
		{
			"sampler":0,
			"source":9
		},
		{
			"sampler":0,
			"source":9
		},
		{
			"sampler":0,
			"source":10
		},
		{
			"sampler":0,
			"source":3
		},
		{
			"sampler":0,
			"source":3
		},
		{
			"sampler":0,
			"source":11
		},
		{
			"sampler":0,
			"source":11
		},
		{
			"sampler":0,
			"source":11
		},
		{
			"sampler":0,
			"source":12
		}
	],
	"images":[
		{
			"mimeType":"image/png",
			"name":"diffuse",
			"uri":"diffuse.png"
		},
		{
			"mimeType":"image/png",
			"name":"leaf_diffuse",
			"uri":"leaf_diffuse.png"
		},
		{
			"mimeType":"image/png",
			"name":"check_1",
			"uri":"check_1.png"
		},
		{
			"mimeType":"image/png",
			"name":"tile_image",
			"uri":"tile_image.png"
		},
		{
			"mimeType":"image/png",
			"name":"mat_metallic_tex_1_metallicRoughness",
			"uri":"mat_metallic_tex_1_metallicRoughness.png"
		},
		{
			"mimeType":"image/png",
			"name":"mat_metallic_tex_2_metallicRoughness",
			"uri":"mat_metallic_tex_2_metallicRoughness.png"
		},
		{
			"mimeType":"image/png",
			"name":"Occlusion_AOMap",
			"uri":"Occlusion_AOMap.png"
		},
		{
			"mimeType":"image/png",
			"name":"mat_roughness_tex_1_metallicRoughness",
			"uri":"mat_roughness_tex_1_metallicRoughness.png"
		},
		{
			"mimeType":"image/png",
			"name":"mat_roughness_tex_2_metallicRoughness",
			"uri":"mat_roughness_tex_2_metallicRoughness.png"
		},
		{
			"mimeType":"image/png",
			"name":"check",
			"uri":"check.png"
		},
		{
			"mimeType":"image/png",
			"name":"glTF\u691c\u8a3c\u7528\u30c6\u30ad\u30b9\u30c8_color",
			"uri":"glTF%E6%A4%9C%E8%A8%BC%E7%94%A8%E3%83%86%E3%82%AD%E3%82%B9%E3%83%88_color.png"
		},
		{
			"mimeType":"image/png",
			"name":"check_normal",
			"uri":"check_normal.png"
		},
		{
			"mimeType":"image/png",
			"name":"diffuse_1",
			"uri":"diffuse_1.png"
		}
	],
	"accessors":[
		{
			"bufferView":0,
			"componentType":5126,
			"count":114,
			"max":[
				-0.014200013130903244,
				0.055000003427267075,
				0.272599995136261
			],
			"min":[
				-0.0642000138759613,
				0.005000000353902578,
				0.22259998321533203
			],
			"type":"VEC3"
		},
		{
			"bufferView":1,
			"componentType":5126,
			"count":114,
			"type":"VEC3"
		},
		{
			"bufferView":2,
			"componentType":5123,
			"count":672,
			"type":"SCALAR"
		},
		{
			"bufferView":3,
			"componentType":5126,
			"count":114,
			"max":[
				0.04520007595419884,
				0.055000003427267075,
				0.2750000059604645
			],
			"min":[
				-0.004799927119165659,
				0.005000000353902578,
				0.22500000894069672
			],
			"type":"VEC3"
		},
		{
			"bufferView":4,
			"componentType":5126,
			"count":114,
			"type":"VEC3"
		},
		{
			"bufferView":5,
			"componentType":5126,
			"count":114,
			"type":"VEC2"
		},
		{
			"bufferView":6,
			"componentType":5126,
			"count":4,
			"max":[
				-0.19449152052402496,
				0.03770282864570618,
				0.2935234606266022
			],
			"min":[
				-0.2903643846511841,
				0.014066345989704132,
				0.20060995221138
			],
			"type":"VEC3"
		},
		{
			"bufferView":7,
			"componentType":5126,
			"count":4,
			"type":"VEC3"
		},
		{
			"bufferView":8,
			"componentType":5126,
			"count":4,
			"type":"VEC2"
		},
		{
			"bufferView":9,
			"componentType":5123,
			"count":6,
			"type":"SCALAR"
		},
		{
			"bufferView":10,
			"componentType":5126,
			"count":114,
			"max":[
				-0.1401999592781067,
				0.055000003427267075,
				0.27319997549057007
			],
			"min":[
				-0.19019995629787445,
				0.005000000353902578,
				0.2231999635696411
			],
			"type":"VEC3"
		},
		{
			"bufferView":11,
			"componentType":5126,
			"count":114,
			"type":"VEC3"
		},
		{
			"bufferView":12,
			"componentType":5126,
			"count":114,
			"type":"VEC2"
		},
		{
			"bufferView":13,
			"componentType":5126,
			"count":114,
			"max":[
				-0.08259998261928558,
				0.055000003427267075,
				0.2732000946998596
			],
			"min":[
				-0.13259997963905334,
				0.005000000353902578,
				0.22320008277893066
			],
			"type":"VEC3"
		},
		{
			"bufferView":14,
			"componentType":5126,
			"count":114,
			"type":"VEC3"
		},
		{
			"bufferView":15,
			"componentType":5126,
			"count":114,
			"type":"VEC2"
		},
		{
			"bufferView":16,
			"componentType":5126,
			"count":12,
			"max":[
				-0.20000000298023224,
				0.06000000238418579,
				0.1300000101327896
			],
			"min":[
				-0.25,
				0.010000000707805157,
				0.08000000566244125
			],
			"type":"VEC3"
		},
		{
			"bufferView":17,
			"componentType":5126,
			"count":12,
			"type":"VEC3"
		},
		{
			"bufferView":18,
			"componentType":5123,
			"count":18,
			"type":"SCALAR"
		},
		{
			"bufferView":19,
			"componentType":5126,
			"count":12,
			"max":[
				-0.12000000476837158,
				0.06000000238418579,
				0.1300000101327896
			],
			"min":[
				-0.17000000178813934,
				0.010000000707805157,
				0.08000000566244125
			],
			"type":"VEC3"
		},
		{
			"bufferView":20,
			"componentType":5126,
			"count":12,
			"type":"VEC3"
		},
		{
			"bufferView":21,
			"componentType":5126,
			"count":114,
			"max":[
				-0.026100007817149162,
				0.055000003427267075,
				0.1561000496149063
			],
			"min":[
				-0.07610000669956207,
				0.005000000353902578,
				0.10610004514455795
			],
			"type":"VEC3"
		},
		{
			"bufferView":22,
			"componentType":5126,
			"count":114,
			"type":"VEC3"
		},
		{
			"bufferView":23,
			"componentType":5126,
			"count":114,
			"max":[
				0.03389999642968178,
				0.055000003427267075,
				0.15720002353191376
			],
			"min":[
				-0.01610000617802143,
				0.005000000353902578,
				0.1072000190615654
			],
			"type":"VEC3"
		},
		{
			"bufferView":24,
			"componentType":5126,
			"count":114,
			"type":"VEC3"
		},
		{
			"bufferView":25,
			"componentType":5126,
			"count":151,
			"max":[
				0.08939997106790543,
				0.055000003427267075,
				0.1550000011920929
			],
			"min":[
				0.03939996659755707,
				0.005000000353902578,
				0.10500000417232513
			],
			"type":"VEC3"
		},
		{
			"bufferView":26,
			"componentType":5126,
			"count":151,
			"type":"VEC3"
		},
		{
			"bufferView":27,
			"componentType":5126,
			"count":151,
			"type":"VEC2"
		},
		{
			"bufferView":28,
			"componentType":5123,
			"count":672,
			"type":"SCALAR"
		},
		{
			"bufferView":29,
			"componentType":5126,
			"count":4,
			"max":[
				0.30000004172325134,
				0,
				0.2500000298023224
			],
			"min":[
				-0.30000004172325134,
				0,
				-0.15000002086162567
			],
			"type":"VEC3"
		},
		{
			"bufferView":30,
			"componentType":5126,
			"count":4,
			"type":"VEC3"
		},
		{
			"bufferView":31,
			"componentType":5126,
			"count":4,
			"type":"VEC2"
		},
		{
			"bufferView":32,
			"componentType":5126,
			"count":4,
			"max":[
				0.30000004172325134,
				0,
				0.44880005717277527
			],
			"min":[
				-0.30000004172325134,
				0,
				0.25
			],
			"type":"VEC3"
		},
		{
			"bufferView":33,
			"componentType":5126,
			"count":4,
			"type":"VEC3"
		},
		{
			"bufferView":34,
			"componentType":5126,
			"count":4,
			"type":"VEC2"
		},
		{
			"bufferView":35,
			"componentType":5123,
			"count":6,
			"type":"SCALAR"
		},
		{
			"bufferView":36,
			"componentType":5126,
			"count":114,
			"max":[
				-0.02500000037252903,
				0.055000003427267075,
				-0.055000003427267075
			],
			"min":[
				-0.07500000298023224,
				0.005000000353902578,
				-0.10500000417232513
			],
			"type":"VEC3"
		},
		{
			"bufferView":37,
			"componentType":5126,
			"count":114,
			"type":"VEC3"
		},
		{
			"bufferView":38,
			"componentType":5126,
			"count":114,
			"max":[
				0.030000001192092896,
				0.055000003427267075,
				-0.055000003427267075
			],
			"min":[
				-0.020000001415610313,
				0.005000000353902578,
				-0.10500000417232513
			],
			"type":"VEC3"
		},
		{
			"bufferView":39,
			"componentType":5126,
			"count":114,
			"type":"VEC3"
		},
		{
			"bufferView":40,
			"componentType":5126,
			"count":114,
			"max":[
				0.08500000089406967,
				0.055000003427267075,
				-0.055000003427267075
			],
			"min":[
				0.03500000014901161,
				0.005000000353902578,
				-0.10500000417232513
			],
			"type":"VEC3"
		},
		{
			"bufferView":41,
			"componentType":5126,
			"count":114,
			"type":"VEC3"
		},
		{
			"bufferView":42,
			"componentType":5126,
			"count":151,
			"max":[
				-0.02500000037252903,
				0.055000003427267075,
				0.005000000353902578
			],
			"min":[
				-0.07500000298023224,
				0.005000000353902578,
				-0.04500000178813934
			],
			"type":"VEC3"
		},
		{
			"bufferView":43,
			"componentType":5126,
			"count":151,
			"type":"VEC3"
		},
		{
			"bufferView":44,
			"componentType":5126,
			"count":151,
			"type":"VEC2"
		},
		{
			"bufferView":45,
			"componentType":5126,
			"count":114,
			"max":[
				0.03500000014901161,
				0.055000003427267075,
				0.005000000353902578
			],
			"min":[
				-0.015000000596046448,
				0.005000000353902578,
				-0.04500000178813934
			],
			"type":"VEC3"
		},
		{
			"bufferView":46,
			"componentType":5126,
			"count":114,
			"type":"VEC3"
		},
		{
			"bufferView":47,
			"componentType":5126,
			"count":114,
			"type":"VEC2"
		},
		{
			"bufferView":48,
			"componentType":5126,
			"count":234,
			"max":[
				0.1859000027179718,
				0.07988212257623672,
				0.1771000474691391
			],
			"min":[
				0.11659998446702957,
				0.0018999939784407616,
				0.10450000315904617
			],
			"type":"VEC3"
		},
		{
			"bufferView":49,
			"componentType":5126,
			"count":234,
			"type":"VEC3"
		},
		{
			"bufferView":50,
			"componentType":5126,
			"count":234,
			"type":"VEC2"
		},
		{
			"bufferView":51,
			"componentType":5123,
			"count":852,
			"type":"SCALAR"
		},
		{
			"bufferView":52,
			"componentType":5126,
			"count":234,
			"max":[
				0.2759000062942505,
				0.07988212257623672,
				0.1771000474691391
			],
			"min":[
				0.20659998059272766,
				0.0018999939784407616,
				0.10450000315904617
			],
			"type":"VEC3"
		},
		{
			"bufferView":53,
			"componentType":5126,
			"count":234,
			"type":"VEC3"
		},
		{
			"bufferView":54,
			"componentType":5126,
			"count":234,
			"type":"VEC2"
		},
		{
			"bufferView":55,
			"componentType":5126,
			"count":114,
			"max":[
				0.17500001192092896,
				0.055000003427267075,
				-0.055000003427267075
			],
			"min":[
				0.125,
				0.005000000353902578,
				-0.10500000417232513
			],
			"type":"VEC3"
		},
		{
			"bufferView":56,
			"componentType":5126,
			"count":114,
			"type":"VEC3"
		},
		{
			"bufferView":57,
			"componentType":5126,
			"count":114,
			"max":[
				0.23500001430511475,
				0.055000003427267075,
				-0.055000003427267075
			],
			"min":[
				0.1850000023841858,
				0.005000000353902578,
				-0.10500000417232513
			],
			"type":"VEC3"
		},
		{
			"bufferView":58,
			"componentType":5126,
			"count":114,
			"type":"VEC3"
		},
		{
			"bufferView":59,
			"componentType":5126,
			"count":114,
			"max":[
				0.29500001668930054,
				0.055000003427267075,
				-0.055000003427267075
			],
			"min":[
				0.24500000476837158,
				0.005000000353902578,
				-0.10500000417232513
			],
			"type":"VEC3"
		},
		{
			"bufferView":60,
			"componentType":5126,
			"count":114,
			"type":"VEC3"
		},
		{
			"bufferView":61,
			"componentType":5126,
			"count":114,
			"max":[
				0.17500001192092896,
				0.055000003427267075,
				0.005000000353902578
			],
			"min":[
				0.125,
				0.005000000353902578,
				-0.04500000178813934
			],
			"type":"VEC3"
		},
		{
			"bufferView":62,
			"componentType":5126,
			"count":114,
			"type":"VEC3"
		},
		{
			"bufferView":63,
			"componentType":5126,
			"count":114,
			"max":[
				0.23500001430511475,
				0.055000003427267075,
				0.005000000353902578
			],
			"min":[
				0.1850000023841858,
				0.005000000353902578,
				-0.04500000178813934
			],
			"type":"VEC3"
		},
		{
			"bufferView":64,
			"componentType":5126,
			"count":114,
			"type":"VEC3"
		},
		{
			"bufferView":65,
			"componentType":5126,
			"count":114,
			"max":[
				0.29500001668930054,
				0.055000003427267075,
				0.005000000353902578
			],
			"min":[
				0.24500000476837158,
				0.005000000353902578,
				-0.04500000178813934
			],
			"type":"VEC3"
		},
		{
			"bufferView":66,
			"componentType":5126,
			"count":114,
			"type":"VEC3"
		},
		{
			"bufferView":67,
			"componentType":5126,
			"count":151,
			"max":[
				0.17500001192092896,
				0.055000003427267075,
				0.0650000050663948
			],
			"min":[
				0.125,
				0.005000000353902578,
				0.015000000596046448
			],
			"type":"VEC3"
		},
		{
			"bufferView":68,
			"componentType":5126,
			"count":151,
			"type":"VEC3"
		},
		{
			"bufferView":69,
			"componentType":5126,
			"count":151,
			"type":"VEC2"
		},
		{
			"bufferView":70,
			"componentType":5126,
			"count":114,
			"max":[
				0.23500001430511475,
				0.055000003427267075,
				0.0650000050663948
			],
			"min":[
				0.1850000023841858,
				0.005000000353902578,
				0.015000000596046448
			],
			"type":"VEC3"
		},
		{
			"bufferView":71,
			"componentType":5126,
			"count":114,
			"type":"VEC3"
		},
		{
			"bufferView":72,
			"componentType":5126,
			"count":114,
			"type":"VEC2"
		},
		{
			"bufferView":73,
			"componentType":5126,
			"count":114,
			"max":[
				-0.2150000035762787,
				0.055000003427267075,
				-0.055000003427267075
			],
			"min":[
				-0.26500001549720764,
				0.005000000353902578,
				-0.10500000417232513
			],
			"type":"VEC3"
		},
		{
			"bufferView":74,
			"componentType":5126,
			"count":114,
			"type":"VEC3"
		},
		{
			"bufferView":75,
			"componentType":5126,
			"count":114,
			"max":[
				-0.1600000113248825,
				0.055000003427267075,
				-0.055000003427267075
			],
			"min":[
				-0.21000000834465027,
				0.005000000353902578,
				-0.10500000417232513
			],
			"type":"VEC3"
		},
		{
			"bufferView":76,
			"componentType":5126,
			"count":114,
			"type":"VEC3"
		},
		{
			"bufferView":77,
			"componentType":5126,
			"count":114,
			"max":[
				-0.10500000417232513,
				0.055000003427267075,
				-0.055000003427267075
			],
			"min":[
				-0.1550000011920929,
				0.005000000353902578,
				-0.10500000417232513
			],
			"type":"VEC3"
		},
		{
			"bufferView":78,
			"componentType":5126,
			"count":114,
			"type":"VEC3"
		},
		{
			"bufferView":79,
			"componentType":5126,
			"count":151,
			"max":[
				-0.2150000035762787,
				0.055000003427267075,
				0.005000000353902578
			],
			"min":[
				-0.26500001549720764,
				0.005000000353902578,
				-0.04500000178813934
			],
			"type":"VEC3"
		},
		{
			"bufferView":80,
			"componentType":5126,
			"count":151,
			"type":"VEC3"
		},
		{
			"bufferView":81,
			"componentType":5126,
			"count":151,
			"type":"VEC2"
		},
		{
			"bufferView":82,
			"componentType":5126,
			"count":151,
			"max":[
				-0.1600000113248825,
				0.055000003427267075,
				0.005000000353902578
			],
			"min":[
				-0.21000000834465027,
				0.005000000353902578,
				-0.04500000178813934
			],
			"type":"VEC3"
		},
		{
			"bufferView":83,
			"componentType":5126,
			"count":151,
			"type":"VEC3"
		},
		{
			"bufferView":84,
			"componentType":5126,
			"count":151,
			"type":"VEC2"
		},
		{
			"bufferView":85,
			"componentType":5126,
			"count":151,
			"max":[
				-0.10500000417232513,
				0.055000003427267075,
				0.005000000353902578
			],
			"min":[
				-0.1550000011920929,
				0.005000000353902578,
				-0.04500000178813934
			],
			"type":"VEC3"
		},
		{
			"bufferView":86,
			"componentType":5126,
			"count":151,
			"type":"VEC3"
		},
		{
			"bufferView":87,
			"componentType":5126,
			"count":151,
			"type":"VEC2"
		},
		{
			"bufferView":88,
			"componentType":5126,
			"count":4,
			"max":[
				-0.002407959196716547,
				0.07362306863069534,
				0.12580005824565887
			],
			"min":[
				-0.06880468875169754,
				0.05598415806889534,
				0.12580005824565887
			],
			"type":"VEC3"
		},
		{
			"bufferView":89,
			"componentType":5126,
			"count":4,
			"type":"VEC3"
		},
		{
			"bufferView":90,
			"componentType":5126,
			"count":4,
			"type":"VEC2"
		},
		{
			"bufferView":91,
			"componentType":5126,
			"count":4,
			"max":[
				-0.11246077716350555,
				0.07668416202068329,
				0.12130002677440643
			],
			"min":[
				-0.17770469188690186,
				0.05945444107055664,
				0.12130002677440643
			],
			"type":"VEC3"
		},
		{
			"bufferView":92,
			"componentType":5126,
			"count":4,
			"type":"VEC3"
		},
		{
			"bufferView":93,
			"componentType":5126,
			"count":4,
			"type":"VEC2"
		},
		{
			"bufferView":94,
			"componentType":5126,
			"count":4,
			"max":[
				-0.10380258411169052,
				0.08081662654876709,
				-0.042248956859111786
			],
			"min":[
				-0.17620469629764557,
				0.06475403159856796,
				-0.042248956859111786
			],
			"type":"VEC3"
		},
		{
			"bufferView":95,
			"componentType":5126,
			"count":4,
			"type":"VEC3"
		},
		{
			"bufferView":96,
			"componentType":5126,
			"count":4,
			"type":"VEC2"
		},
		{
			"bufferView":97,
			"componentType":5126,
			"count":4,
			"max":[
				-0.1123698502779007,
				0.0736849382519722,
				0.1875000149011612
			],
			"min":[
				-0.1831047087907791,
				0.0550331212580204,
				0.1875000149011612
			],
			"type":"VEC3"
		},
		{
			"bufferView":98,
			"componentType":5126,
			"count":4,
			"type":"VEC3"
		},
		{
			"bufferView":99,
			"componentType":5126,
			"count":4,
			"type":"VEC2"
		},
		{
			"bufferView":100,
			"componentType":5126,
			"count":4,
			"max":[
				-0.030687760561704636,
				0.07805109024047852,
				0.06750000268220901
			],
			"min":[
				-0.083104707300663,
				0.060323067009449005,
				0.06750000268220901
			],
			"type":"VEC3"
		},
		{
			"bufferView":101,
			"componentType":5126,
			"count":4,
			"type":"VEC3"
		},
		{
			"bufferView":102,
			"componentType":5126,
			"count":4,
			"type":"VEC2"
		},
		{
			"bufferView":103,
			"componentType":5126,
			"count":4,
			"max":[
				0.10782704502344131,
				0.041071657091379166,
				0.24320383369922638
			],
			"min":[
				-0.01230468787252903,
				0.041071657091379166,
				0.2273961305618286
			],
			"type":"VEC3"
		},
		{
			"bufferView":104,
			"componentType":5126,
			"count":4,
			"type":"VEC3"
		},
		{
			"bufferView":105,
			"componentType":5126,
			"count":4,
			"type":"VEC2"
		},
		{
			"bufferView":106,
			"componentType":5123,
			"count":6,
			"type":"SCALAR"
		},
		{
			"bufferView":107,
			"componentType":5126,
			"count":4,
			"max":[
				-0.025852326303720474,
				0.08065622299909592,
				-0.04297124594449997
			],
			"min":[
				-0.07015469670295715,
				0.06551426649093628,
				-0.04297124594449997
			],
			"type":"VEC3"
		},
		{
			"bufferView":108,
			"componentType":5126,
			"count":4,
			"type":"VEC3"
		},
		{
			"bufferView":109,
			"componentType":5126,
			"count":4,
			"type":"VEC2"
		},
		{
			"bufferView":110,
			"componentType":5126,
			"count":4,
			"max":[
				-0.10903789103031158,
				0.08285736292600632,
				0.06750000268220901
			],
			"min":[
				-0.17060472071170807,
				0.06555108726024628,
				0.06750000268220901
			],
			"type":"VEC3"
		},
		{
			"bufferView":111,
			"componentType":5126,
			"count":4,
			"type":"VEC3"
		},
		{
			"bufferView":112,
			"componentType":5126,
			"count":4,
			"type":"VEC2"
		},
		{
			"bufferView":113,
			"componentType":5126,
			"count":4,
			"max":[
				0.07805978506803513,
				0.07941270619630814,
				0.06643321365118027
			],
			"min":[
				0.02161381021142006,
				0.06546373665332794,
				0.06643321365118027
			],
			"type":"VEC3"
		},
		{
			"bufferView":114,
			"componentType":5126,
			"count":4,
			"type":"VEC3"
		},
		{
			"bufferView":115,
			"componentType":5126,
			"count":4,
			"type":"VEC2"
		},
		{
			"bufferView":116,
			"componentType":5126,
			"count":4,
			"max":[
				0.08849727362394333,
				0.0817832350730896,
				-0.04500000178813934
			],
			"min":[
				0.026895295828580856,
				0.06488495320081711,
				-0.04500000178813934
			],
			"type":"VEC3"
		},
		{
			"bufferView":117,
			"componentType":5126,
			"count":4,
			"type":"VEC3"
		},
		{
			"bufferView":118,
			"componentType":5126,
			"count":4,
			"type":"VEC2"
		},
		{
			"bufferView":119,
			"componentType":5126,
			"count":4,
			"max":[
				-0.03227676451206207,
				0.07059276103973389,
				0.18393322825431824
			],
			"min":[
				-0.061926212161779404,
				0.05506949871778488,
				0.18393322825431824
			],
			"type":"VEC3"
		},
		{
			"bufferView":120,
			"componentType":5126,
			"count":4,
			"type":"VEC3"
		},
		{
			"bufferView":121,
			"componentType":5126,
			"count":4,
			"type":"VEC2"
		},
		{
			"bufferView":122,
			"componentType":5126,
			"count":4,
			"max":[
				0.08701081573963165,
				0.07483313232660294,
				0.12760001420974731
			],
			"min":[
				0.019395295530557632,
				0.05645734816789627,
				0.12760001420974731
			],
			"type":"VEC3"
		},
		{
			"bufferView":123,
			"componentType":5126,
			"count":4,
			"type":"VEC3"
		},
		{
			"bufferView":124,
			"componentType":5126,
			"count":4,
			"type":"VEC2"
		},
		{
			"bufferView":125,
			"componentType":5126,
			"count":289,
			"max":[
				-0.000845239672344178,
				0.0256000068038702,
				0.13915476202964783
			],
			"min":[
				-0.07915476709604263,
				0.005600006319582462,
				0.06084524095058441
			],
			"type":"VEC3"
		},
		{
			"bufferView":126,
			"componentType":5126,
			"count":289,
			"type":"VEC3"
		},
		{
			"bufferView":127,
			"componentType":5126,
			"count":289,
			"type":"VEC2"
		},
		{
			"bufferView":128,
			"componentType":5123,
			"count":1536,
			"type":"SCALAR"
		},
		{
			"bufferView":129,
			"componentType":5126,
			"count":289,
			"max":[
				0.08915476500988007,
				0.0256000068038702,
				0.13915476202964783
			],
			"min":[
				0.010845238342881203,
				0.005600006319582462,
				0.06084524095058441
			],
			"type":"VEC3"
		},
		{
			"bufferView":130,
			"componentType":5126,
			"count":289,
			"type":"VEC3"
		},
		{
			"bufferView":131,
			"componentType":5126,
			"count":289,
			"type":"VEC2"
		},
		{
			"bufferView":132,
			"componentType":5126,
			"count":151,
			"max":[
				-0.2150000035762787,
				0.055000003427267075,
				0.15609999001026154
			],
			"min":[
				-0.26500001549720764,
				0.005000000353902578,
				0.10609997808933258
			],
			"type":"VEC3"
		},
		{
			"bufferView":133,
			"componentType":5126,
			"count":151,
			"type":"VEC3"
		},
		{
			"bufferView":134,
			"componentType":5126,
			"count":151,
			"type":"VEC2"
		},
		{
			"bufferView":135,
			"componentType":5126,
			"count":151,
			"max":[
				-0.15940000116825104,
				0.055000003427267075,
				0.1535000056028366
			],
			"min":[
				-0.2093999981880188,
				0.005000000353902578,
				0.10350000858306885
			],
			"type":"VEC3"
		},
		{
			"bufferView":136,
			"componentType":5126,
			"count":151,
			"type":"VEC3"
		},
		{
			"bufferView":137,
			"componentType":5126,
			"count":151,
			"type":"VEC2"
		},
		{
			"bufferView":138,
			"componentType":5126,
			"count":151,
			"max":[
				-0.10500000417232513,
				0.055000003427267075,
				0.1550000011920929
			],
			"min":[
				-0.1550000011920929,
				0.005000000353902578,
				0.10500000417232513
			],
			"type":"VEC3"
		},
		{
			"bufferView":139,
			"componentType":5126,
			"count":151,
			"type":"VEC3"
		},
		{
			"bufferView":140,
			"componentType":5126,
			"count":151,
			"type":"VEC2"
		},
		{
			"bufferView":141,
			"componentType":5126,
			"count":4,
			"max":[
				0.19800007343292236,
				0.013800019398331642,
				0.30960017442703247
			],
			"min":[
				0.11520002037286758,
				0.013800019398331642,
				0.2268001139163971
			],
			"type":"VEC3"
		},
		{
			"bufferView":142,
			"componentType":5126,
			"count":4,
			"type":"VEC3"
		},
		{
			"bufferView":143,
			"componentType":5126,
			"count":4,
			"type":"VEC2"
		},
		{
			"bufferView":144,
			"componentType":5126,
			"count":4,
			"type":"VEC3"
		},
		{
			"bufferView":145,
			"componentType":5123,
			"count":6,
			"type":"SCALAR"
		},
		{
			"bufferView":146,
			"componentType":5126,
			"count":4,
			"max":[
				0.2898000478744507,
				0.013800019398331642,
				0.30780017375946045
			],
			"min":[
				0.2070000171661377,
				0.013800019398331642,
				0.22500012814998627
			],
			"type":"VEC3"
		},
		{
			"bufferView":147,
			"componentType":5126,
			"count":4,
			"type":"VEC3"
		},
		{
			"bufferView":148,
			"componentType":5126,
			"count":4,
			"type":"VEC2"
		},
		{
			"bufferView":149,
			"componentType":5123,
			"count":4,
			"normalized":true,
			"type":"VEC4"
		}
	],
	"bufferViews":[
		{
			"buffer":0,
			"byteLength":1368,
			"byteOffset":0,
			"target":34962
		},
		{
			"buffer":0,
			"byteLength":1368,
			"byteOffset":1368,
			"target":34962
		},
		{
			"buffer":0,
			"byteLength":1344,
			"byteOffset":2736,
			"target":34963
		},
		{
			"buffer":0,
			"byteLength":1368,
			"byteOffset":4080,
			"target":34962
		},
		{
			"buffer":0,
			"byteLength":1368,
			"byteOffset":5448,
			"target":34962
		},
		{
			"buffer":0,
			"byteLength":912,
			"byteOffset":6816,
			"target":34962
		},
		{
			"buffer":0,
			"byteLength":48,
			"byteOffset":7728,
			"target":34962
		},
		{
			"buffer":0,
			"byteLength":48,
			"byteOffset":7776,
			"target":34962
		},
		{
			"buffer":0,
			"byteLength":32,
			"byteOffset":7824,
			"target":34962
		},
		{
			"buffer":0,
			"byteLength":12,
			"byteOffset":7856,
			"target":34963
		},
		{
			"buffer":0,
			"byteLength":1368,
			"byteOffset":7868,
			"target":34962
		},
		{
			"buffer":0,
			"byteLength":1368,
			"byteOffset":9236,
			"target":34962
		},
		{
			"buffer":0,
			"byteLength":912,
			"byteOffset":10604,
			"target":34962
		},
		{
			"buffer":0,
			"byteLength":1368,
			"byteOffset":11516,
			"target":34962
		},
		{
			"buffer":0,
			"byteLength":1368,
			"byteOffset":12884,
			"target":34962
		},
		{
			"buffer":0,
			"byteLength":912,
			"byteOffset":14252,
			"target":34962
		},
		{
			"buffer":0,
			"byteLength":144,
			"byteOffset":15164,
			"target":34962
		},
		{
			"buffer":0,
			"byteLength":144,
			"byteOffset":15308,
			"target":34962
		},
		{
			"buffer":0,
			"byteLength":36,
			"byteOffset":15452,
			"target":34963
		},
		{
			"buffer":0,
			"byteLength":144,
			"byteOffset":15488,
			"target":34962
		},
		{
			"buffer":0,
			"byteLength":144,
			"byteOffset":15632,
			"target":34962
		},
		{
			"buffer":0,
			"byteLength":1368,
			"byteOffset":15776,
			"target":34962
		},
		{
			"buffer":0,
			"byteLength":1368,
			"byteOffset":17144,
			"target":34962
		},
		{
			"buffer":0,
			"byteLength":1368,
			"byteOffset":18512,
			"target":34962
		},
		{
			"buffer":0,
			"byteLength":1368,
			"byteOffset":19880,
			"target":34962
		},
		{
			"buffer":0,
			"byteLength":1812,
			"byteOffset":21248,
			"target":34962
		},
		{
			"buffer":0,
			"byteLength":1812,
			"byteOffset":23060,
			"target":34962
		},
		{
			"buffer":0,
			"byteLength":1208,
			"byteOffset":24872,
			"target":34962
		},
		{
			"buffer":0,
			"byteLength":1344,
			"byteOffset":26080,
			"target":34963
		},
		{
			"buffer":0,
			"byteLength":48,
			"byteOffset":27424,
			"target":34962
		},
		{
			"buffer":0,
			"byteLength":48,
			"byteOffset":27472,
			"target":34962
		},
		{
			"buffer":0,
			"byteLength":32,
			"byteOffset":27520,
			"target":34962
		},
		{
			"buffer":0,
			"byteLength":48,
			"byteOffset":27552,
			"target":34962
		},
		{
			"buffer":0,
			"byteLength":48,
			"byteOffset":27600,
			"target":34962
		},
		{
			"buffer":0,
			"byteLength":32,
			"byteOffset":27648,
			"target":34962
		},
		{
			"buffer":0,
			"byteLength":12,
			"byteOffset":27680,
			"target":34963
		},
		{
			"buffer":0,
			"byteLength":1368,
			"byteOffset":27692,
			"target":34962
		},
		{
			"buffer":0,
			"byteLength":1368,
			"byteOffset":29060,
			"target":34962
		},
		{
			"buffer":0,
			"byteLength":1368,
			"byteOffset":30428,
			"target":34962
		},
		{
			"buffer":0,
			"byteLength":1368,
			"byteOffset":31796,
			"target":34962
		},
		{
			"buffer":0,
			"byteLength":1368,
			"byteOffset":33164,
			"target":34962
		},
		{
			"buffer":0,
			"byteLength":1368,
			"byteOffset":34532,
			"target":34962
		},
		{
			"buffer":0,
			"byteLength":1812,
			"byteOffset":35900,
			"target":34962
		},
		{
			"buffer":0,
			"byteLength":1812,
			"byteOffset":37712,
			"target":34962
		},
		{
			"buffer":0,
			"byteLength":1208,
			"byteOffset":39524,
			"target":34962
		},
		{
			"buffer":0,
			"byteLength":1368,
			"byteOffset":40732,
			"target":34962
		},
		{
			"buffer":0,
			"byteLength":1368,
			"byteOffset":42100,
			"target":34962
		},
		{
			"buffer":0,
			"byteLength":912,
			"byteOffset":43468,
			"target":34962
		},
		{
			"buffer":0,
			"byteLength":2808,
			"byteOffset":44380,
			"target":34962
		},
		{
			"buffer":0,
			"byteLength":2808,
			"byteOffset":47188,
			"target":34962
		},
		{
			"buffer":0,
			"byteLength":1872,
			"byteOffset":49996,
			"target":34962
		},
		{
			"buffer":0,
			"byteLength":1704,
			"byteOffset":51868,
			"target":34963
		},
		{
			"buffer":0,
			"byteLength":2808,
			"byteOffset":53572,
			"target":34962
		},
		{
			"buffer":0,
			"byteLength":2808,
			"byteOffset":56380,
			"target":34962
		},
		{
			"buffer":0,
			"byteLength":1872,
			"byteOffset":59188,
			"target":34962
		},
		{
			"buffer":0,
			"byteLength":1368,
			"byteOffset":61060,
			"target":34962
		},
		{
			"buffer":0,
			"byteLength":1368,
			"byteOffset":62428,
			"target":34962
		},
		{
			"buffer":0,
			"byteLength":1368,
			"byteOffset":63796,
			"target":34962
		},
		{
			"buffer":0,
			"byteLength":1368,
			"byteOffset":65164,
			"target":34962
		},
		{
			"buffer":0,
			"byteLength":1368,
			"byteOffset":66532,
			"target":34962
		},
		{
			"buffer":0,
			"byteLength":1368,
			"byteOffset":67900,
			"target":34962
		},
		{
			"buffer":0,
			"byteLength":1368,
			"byteOffset":69268,
			"target":34962
		},
		{
			"buffer":0,
			"byteLength":1368,
			"byteOffset":70636,
			"target":34962
		},
		{
			"buffer":0,
			"byteLength":1368,
			"byteOffset":72004,
			"target":34962
		},
		{
			"buffer":0,
			"byteLength":1368,
			"byteOffset":73372,
			"target":34962
		},
		{
			"buffer":0,
			"byteLength":1368,
			"byteOffset":74740,
			"target":34962
		},
		{
			"buffer":0,
			"byteLength":1368,
			"byteOffset":76108,
			"target":34962
		},
		{
			"buffer":0,
			"byteLength":1812,
			"byteOffset":77476,
			"target":34962
		},
		{
			"buffer":0,
			"byteLength":1812,
			"byteOffset":79288,
			"target":34962
		},
		{
			"buffer":0,
			"byteLength":1208,
			"byteOffset":81100,
			"target":34962
		},
		{
			"buffer":0,
			"byteLength":1368,
			"byteOffset":82308,
			"target":34962
		},
		{
			"buffer":0,
			"byteLength":1368,
			"byteOffset":83676,
			"target":34962
		},
		{
			"buffer":0,
			"byteLength":912,
			"byteOffset":85044,
			"target":34962
		},
		{
			"buffer":0,
			"byteLength":1368,
			"byteOffset":85956,
			"target":34962
		},
		{
			"buffer":0,
			"byteLength":1368,
			"byteOffset":87324,
			"target":34962
		},
		{
			"buffer":0,
			"byteLength":1368,
			"byteOffset":88692,
			"target":34962
		},
		{
			"buffer":0,
			"byteLength":1368,
			"byteOffset":90060,
			"target":34962
		},
		{
			"buffer":0,
			"byteLength":1368,
			"byteOffset":91428,
			"target":34962
		},
		{
			"buffer":0,
			"byteLength":1368,
			"byteOffset":92796,
			"target":34962
		},
		{
			"buffer":0,
			"byteLength":1812,
			"byteOffset":94164,
			"target":34962
		},
		{
			"buffer":0,
			"byteLength":1812,
			"byteOffset":95976,
			"target":34962
		},
		{
			"buffer":0,
			"byteLength":1208,
			"byteOffset":97788,
			"target":34962
		},
		{
			"buffer":0,
			"byteLength":1812,
			"byteOffset":98996,
			"target":34962
		},
		{
			"buffer":0,
			"byteLength":1812,
			"byteOffset":100808,
			"target":34962
		},
		{
			"buffer":0,
			"byteLength":1208,
			"byteOffset":102620,
			"target":34962
		},
		{
			"buffer":0,
			"byteLength":1812,
			"byteOffset":103828,
			"target":34962
		},
		{
			"buffer":0,
			"byteLength":1812,
			"byteOffset":105640,
			"target":34962
		},
		{
			"buffer":0,
			"byteLength":1208,
			"byteOffset":107452,
			"target":34962
		},
		{
			"buffer":0,
			"byteLength":48,
			"byteOffset":108660,
			"target":34962
		},
		{
			"buffer":0,
			"byteLength":48,
			"byteOffset":108708,
			"target":34962
		},
		{
			"buffer":0,
			"byteLength":32,
			"byteOffset":108756,
			"target":34962
		},
		{
			"buffer":0,
			"byteLength":48,
			"byteOffset":108788,
			"target":34962
		},
		{
			"buffer":0,
			"byteLength":48,
			"byteOffset":108836,
			"target":34962
		},
		{
			"buffer":0,
			"byteLength":32,
			"byteOffset":108884,
			"target":34962
		},
		{
			"buffer":0,
			"byteLength":48,
			"byteOffset":108916,
			"target":34962
		},
		{
			"buffer":0,
			"byteLength":48,
			"byteOffset":108964,
			"target":34962
		},
		{
			"buffer":0,
			"byteLength":32,
			"byteOffset":109012,
			"target":34962
		},
		{
			"buffer":0,
			"byteLength":48,
			"byteOffset":109044,
			"target":34962
		},
		{
			"buffer":0,
			"byteLength":48,
			"byteOffset":109092,
			"target":34962
		},
		{
			"buffer":0,
			"byteLength":32,
			"byteOffset":109140,
			"target":34962
		},
		{
			"buffer":0,
			"byteLength":48,
			"byteOffset":109172,
			"target":34962
		},
		{
			"buffer":0,
			"byteLength":48,
			"byteOffset":109220,
			"target":34962
		},
		{
			"buffer":0,
			"byteLength":32,
			"byteOffset":109268,
			"target":34962
		},
		{
			"buffer":0,
			"byteLength":48,
			"byteOffset":109300,
			"target":34962
		},
		{
			"buffer":0,
			"byteLength":48,
			"byteOffset":109348,
			"target":34962
		},
		{
			"buffer":0,
			"byteLength":32,
			"byteOffset":109396,
			"target":34962
		},
		{
			"buffer":0,
			"byteLength":12,
			"byteOffset":109428,
			"target":34963
		},
		{
			"buffer":0,
			"byteLength":48,
			"byteOffset":109440,
			"target":34962
		},
		{
			"buffer":0,
			"byteLength":48,
			"byteOffset":109488,
			"target":34962
		},
		{
			"buffer":0,
			"byteLength":32,
			"byteOffset":109536,
			"target":34962
		},
		{
			"buffer":0,
			"byteLength":48,
			"byteOffset":109568,
			"target":34962
		},
		{
			"buffer":0,
			"byteLength":48,
			"byteOffset":109616,
			"target":34962
		},
		{
			"buffer":0,
			"byteLength":32,
			"byteOffset":109664,
			"target":34962
		},
		{
			"buffer":0,
			"byteLength":48,
			"byteOffset":109696,
			"target":34962
		},
		{
			"buffer":0,
			"byteLength":48,
			"byteOffset":109744,
			"target":34962
		},
		{
			"buffer":0,
			"byteLength":32,
			"byteOffset":109792,
			"target":34962
		},
		{
			"buffer":0,
			"byteLength":48,
			"byteOffset":109824,
			"target":34962
		},
		{
			"buffer":0,
			"byteLength":48,
			"byteOffset":109872,
			"target":34962
		},
		{
			"buffer":0,
			"byteLength":32,
			"byteOffset":109920,
			"target":34962
		},
		{
			"buffer":0,
			"byteLength":48,
			"byteOffset":109952,
			"target":34962
		},
		{
			"buffer":0,
			"byteLength":48,
			"byteOffset":110000,
			"target":34962
		},
		{
			"buffer":0,
			"byteLength":32,
			"byteOffset":110048,
			"target":34962
		},
		{
			"buffer":0,
			"byteLength":48,
			"byteOffset":110080,
			"target":34962
		},
		{
			"buffer":0,
			"byteLength":48,
			"byteOffset":110128,
			"target":34962
		},
		{
			"buffer":0,
			"byteLength":32,
			"byteOffset":110176,
			"target":34962
		},
		{
			"buffer":0,
			"byteLength":3468,
			"byteOffset":110208,
			"target":34962
		},
		{
			"buffer":0,
			"byteLength":3468,
			"byteOffset":113676,
			"target":34962
		},
		{
			"buffer":0,
			"byteLength":2312,
			"byteOffset":117144,
			"target":34962
		},
		{
			"buffer":0,
			"byteLength":3072,
			"byteOffset":119456,
			"target":34963
		},
		{
			"buffer":0,
			"byteLength":3468,
			"byteOffset":122528,
			"target":34962
		},
		{
			"buffer":0,
			"byteLength":3468,
			"byteOffset":125996,
			"target":34962
		},
		{
			"buffer":0,
			"byteLength":2312,
			"byteOffset":129464,
			"target":34962
		},
		{
			"buffer":0,
			"byteLength":1812,
			"byteOffset":131776,
			"target":34962
		},
		{
			"buffer":0,
			"byteLength":1812,
			"byteOffset":133588,
			"target":34962
		},
		{
			"buffer":0,
			"byteLength":1208,
			"byteOffset":135400,
			"target":34962
		},
		{
			"buffer":0,
			"byteLength":1812,
			"byteOffset":136608,
			"target":34962
		},
		{
			"buffer":0,
			"byteLength":1812,
			"byteOffset":138420,
			"target":34962
		},
		{
			"buffer":0,
			"byteLength":1208,
			"byteOffset":140232,
			"target":34962
		},
		{
			"buffer":0,
			"byteLength":1812,
			"byteOffset":141440,
			"target":34962
		},
		{
			"buffer":0,
			"byteLength":1812,
			"byteOffset":143252,
			"target":34962
		},
		{
			"buffer":0,
			"byteLength":1208,
			"byteOffset":145064,
			"target":34962
		},
		{
			"buffer":0,
			"byteLength":48,
			"byteOffset":146272,
			"target":34962
		},
		{
			"buffer":0,
			"byteLength":48,
			"byteOffset":146320,
			"target":34962
		},
		{
			"buffer":0,
			"byteLength":32,
			"byteOffset":146368,
			"target":34962
		},
		{
			"buffer":0,
			"byteLength":48,
			"byteOffset":146400,
			"target":34962
		},
		{
			"buffer":0,
			"byteLength":12,
			"byteOffset":146448,
			"target":34963
		},
		{
			"buffer":0,
			"byteLength":48,
			"byteOffset":146460,
			"target":34962
		},
		{
			"buffer":0,
			"byteLength":48,
			"byteOffset":146508,
			"target":34962
		},
		{
			"buffer":0,
			"byteLength":32,
			"byteOffset":146556,
			"target":34962
		},
		{
			"buffer":0,
			"byteLength":32,
			"byteOffset":146588,
			"target":34962
		}
	],
	"samplers":[
		{
			"magFilter":9729,
			"minFilter":9987
		}
	],
	"buffers":[
		{
			"byteLength":146620,
			"uri":"gltfTest_PBRMaterial.bin"
		}
	]
}
